<svg width="24" height="24" viewBox="0 0 24 24" fill="none" xmlns="http://www.w3.org/2000/svg">
<path d="M7.11601 5.32924C9.13262 6.83629 11.3017 9.89196 12.0981 11.5318C12.8945 9.89208 15.0635 6.83626 17.0802 5.32924C18.5353 4.24182 20.8929 3.40043 20.8929 6.07777C20.8929 6.61247 20.5849 10.5695 20.4043 11.212C19.7764 13.4454 17.4885 14.0151 15.4534 13.6703C19.0108 14.273 19.9157 16.2693 17.9614 18.2656C14.2497 22.057 12.6266 17.3144 12.2105 16.0991C12.1342 15.8763 12.0986 15.7721 12.098 15.8607C12.0975 15.7721 12.0618 15.8763 11.9856 16.0991C11.5697 17.3144 9.94664 22.0572 6.23473 18.2656C4.28035 16.2693 5.18527 14.2729 8.74267 13.6703C6.7075 14.0151 4.41958 13.4454 3.79182 11.212C3.61119 10.5695 3.30322 6.61241 3.30322 6.07777C3.30322 3.40043 5.66089 4.24182 7.11591 5.32924H7.11601Z" fill="#09090B"/>
</svg>
