<svg width="24" height="24" viewBox="0 0 24 24" fill="none" xmlns="http://www.w3.org/2000/svg">
<path d="M9.632 19.632C10.4 19.864 11.176 20 12 20C14.1218 20 16.1565 19.1571 17.6568 17.6568C19.1571 16.1565 20 14.1218 20 12C20 10.9494 19.7931 9.90914 19.3911 8.93853C18.989 7.96792 18.3997 7.08601 17.6568 6.34315C16.914 5.60028 16.0321 5.011 15.0615 4.60896C14.0909 4.20693 13.0506 4 12 4C10.9494 4 9.90914 4.20693 8.93853 4.60896C7.96792 5.011 7.08601 5.60028 6.34315 6.34315C4.84285 7.84344 4 9.87827 4 12C4 15.4 6.136 18.32 9.152 19.472C9.08 18.848 9.008 17.816 9.152 17.104L10.072 13.152C10.072 13.152 9.84 12.688 9.84 11.952C9.84 10.848 10.528 10.024 11.312 10.024C12 10.024 12.32 10.528 12.32 11.176C12.32 11.864 11.864 12.848 11.632 13.792C11.496 14.576 12.048 15.264 12.848 15.264C14.272 15.264 15.376 13.744 15.376 11.6C15.376 9.68 14 8.368 12.024 8.368C9.768 8.368 8.44 10.048 8.44 11.816C8.44 12.504 8.664 13.2 9.032 13.656C9.104 13.704 9.104 13.768 9.08 13.888L8.848 14.76C8.848 14.896 8.76 14.944 8.624 14.848C7.6 14.4 7.008 12.944 7.008 11.768C7.008 9.24 8.8 6.944 12.256 6.944C15.008 6.944 17.152 8.92 17.152 11.544C17.152 14.296 15.448 16.504 13.008 16.504C12.232 16.504 11.472 16.088 11.2 15.6L10.664 17.496C10.48 18.184 9.976 19.104 9.632 19.656V19.632Z" fill="#09090B"/>
</svg>
