<svg width="24" height="24" viewBox="0 0 24 24" fill="none" xmlns="http://www.w3.org/2000/svg">
<path d="M6 4C4.89543 4 4 4.89543 4 6V18C4 19.1046 4.89543 20 6 20H18C19.1046 20 20 19.1046 20 18V6C20 4.89543 19.1046 4 18 4H6ZM8.112 17.3333C7.314 17.3333 6.66667 16.6873 6.66667 15.89C6.66667 15.0927 7.314 14.4467 8.112 14.4467C8.91 14.4467 9.55667 15.0927 9.55667 15.89C9.55667 16.6873 8.91 17.3333 8.112 17.3333ZM12.6267 17.3333C12.0388 17.3333 11.5726 16.8541 11.4414 16.281C11.0193 14.438 9.56318 12.9844 7.71752 12.5639C7.14515 12.4334 6.66667 11.9679 6.66667 11.3809V11.3809C6.66667 10.7866 7.15349 10.2977 7.74035 10.3911C10.7549 10.8708 13.1355 13.2475 13.6175 16.2579C13.7116 16.8456 13.2219 17.3333 12.6267 17.3333V17.3333ZM16.2602 17.3333C15.6701 17.3333 15.1983 16.8535 15.1239 16.2681C14.6338 12.4131 11.5811 9.36823 7.72939 8.8752C7.14516 8.80041 6.66667 8.32922 6.66667 7.74023V7.74023C6.66667 7.14793 7.1493 6.66277 7.73849 6.7234C12.7686 7.24099 16.7654 11.2366 17.2778 16.2619C17.3379 16.8511 16.8525 17.3333 16.2602 17.3333V17.3333Z" fill="#09090B"/>
</svg>
