<svg width="32" height="32" viewBox="0 0 32 32" fill="none" xmlns="http://www.w3.org/2000/svg">
<path d="M7.33325 5.33325C6.22869 5.33325 5.33325 6.22868 5.33325 7.33325V24.6666C5.33325 25.7712 6.22868 26.6666 7.33325 26.6666H24.6666C25.7712 26.6666 26.6666 25.7712 26.6666 24.6666V7.33325C26.6666 6.22869 25.7712 5.33325 24.6666 5.33325H7.33325ZM10.8159 23.111C9.75192 23.111 8.88881 22.2497 8.88881 21.1866C8.88881 20.1235 9.75192 19.2621 10.8159 19.2621C11.8799 19.2621 12.7421 20.1235 12.7421 21.1866C12.7421 22.2497 11.8799 23.111 10.8159 23.111ZM16.8355 23.111C16.0516 23.111 15.4301 22.472 15.2551 21.708C14.6923 19.2506 12.7508 17.3125 10.29 16.7517C9.52679 16.5778 8.88881 15.9571 8.88881 15.1744V15.1744C8.88881 14.3821 9.53791 13.7302 10.3204 13.8547C14.3398 14.4943 17.5139 17.6632 18.1566 21.6772C18.2821 22.4608 17.6291 23.111 16.8355 23.111V23.111ZM21.6802 23.111C20.8934 23.111 20.2643 22.4712 20.1651 21.6907C19.5116 16.5507 15.4414 12.4909 10.3058 11.8335C9.5268 11.7338 8.88881 11.1056 8.88881 10.3202V10.3202C8.88881 9.53049 9.53232 8.88361 10.3179 8.96445C17.0247 9.65457 22.3538 14.9821 23.037 21.6824C23.1171 22.4681 22.4699 23.111 21.6802 23.111V23.111Z" fill="#09090B"/>
</svg>
