<svg width="192" height="192" viewBox="0 0 192 192" fill="none" xmlns="http://www.w3.org/2000/svg">
<rect width="192" height="192" rx="40" fill="url(#paint0_radial_147_2)"/>
<path opacity="0.16" d="M59 152V142.599C61.2356 142.504 63.0823 142.219 64.5403 141.744C66.0955 141.269 67.2619 140.177 68.0395 138.468C68.9142 136.758 69.3516 134.004 69.3516 130.206V75.649C69.3516 73.085 69.4002 70.616 69.4974 68.2419C69.6918 65.8678 69.8376 64.0634 69.9348 62.8289C68.3796 62.9239 66.4357 63.0188 64.1029 63.1138C61.7702 63.1138 60.0692 63.1613 59 63.2563V52.2879C65.7067 52.193 72.4134 52.1455 79.1201 52.1455C85.924 52.1455 92.6792 52.098 99.3859 52.003C111.05 51.9081 120.284 54.0448 127.087 58.4131C133.989 62.6865 137.196 69.1915 136.71 77.9282C136.516 80.6821 135.641 83.3886 134.086 86.0476C132.531 88.6116 130.198 90.9382 127.087 93.0274C124.074 95.1166 120.284 96.7785 115.715 98.013V98.1555C125.435 99.6749 132.579 102.856 137.148 107.699C141.716 112.448 144 117.766 144 123.653C144 129.826 142.445 135.049 139.334 139.322C136.321 143.501 132.142 146.682 126.796 148.866C121.45 150.955 115.375 152 108.571 152H59ZM89.9091 141.886C91.6587 141.886 93.311 141.886 94.8662 141.886C96.4214 141.886 97.9766 141.886 99.5317 141.886C101.087 141.791 102.593 141.744 104.051 141.744C109.981 141.459 114.306 139.607 117.027 136.189C119.749 132.77 121.11 128.449 121.11 123.226C121.11 118.858 120.186 115.439 118.34 112.97C116.493 110.406 114.111 108.601 111.196 107.557C108.377 106.512 105.412 105.99 102.302 105.99C99.8719 105.99 97.7822 105.99 96.0326 105.99C94.283 105.99 92.4362 106.037 90.4923 106.132V129.351C90.4923 131.915 90.4437 134.337 90.3465 136.616C90.2493 138.895 90.1035 140.652 89.9091 141.886ZM90.4923 96.0188L98.0738 95.8763C102.156 95.7814 105.364 94.8792 107.696 93.1699C110.126 91.4605 111.827 89.1814 112.799 86.3325C113.868 83.3886 114.403 80.2073 114.403 76.7886C114.403 72.99 113.625 70.0462 112.07 67.957C110.515 65.7728 108.571 64.2059 106.238 63.2563C103.906 62.3066 101.476 61.8793 98.9485 61.9742C97.3934 61.9742 95.984 62.2116 94.7204 62.6865C93.4568 63.1613 92.4362 64.2534 91.6587 65.9627C90.8811 67.5771 90.4923 70.2361 90.4923 73.9397V96.0188Z" fill="white"/>
<path d="M54 148V138.599C56.2356 138.504 58.0823 138.219 59.5403 137.744C61.0955 137.269 62.2619 136.177 63.0395 134.468C63.9142 132.758 64.3516 130.004 64.3516 126.206V71.649C64.3516 69.085 64.4002 66.616 64.4974 64.2419C64.6918 61.8678 64.8376 60.0634 64.9348 58.8289C63.3796 58.9239 61.4357 59.0188 59.1029 59.1138C56.7702 59.1138 55.0692 59.1613 54 59.2563V48.2879C60.7067 48.193 67.4134 48.1455 74.1201 48.1455C80.924 48.1455 87.6792 48.098 94.3859 48.003C106.05 47.9081 115.284 50.0448 122.087 54.4131C128.989 58.6865 132.196 65.1915 131.71 73.9282C131.516 76.6821 130.641 79.3886 129.086 82.0476C127.531 84.6116 125.198 86.9382 122.087 89.0274C119.074 91.1166 115.284 92.7785 110.715 94.013V94.1555C120.435 95.6749 127.579 98.8562 132.148 103.699C136.716 108.448 139 113.766 139 119.653C139 125.826 137.445 131.049 134.334 135.322C131.321 139.501 127.142 142.682 121.796 144.866C116.45 146.955 110.375 148 103.571 148H54ZM84.9091 137.886C86.6587 137.886 88.311 137.886 89.8662 137.886C91.4214 137.886 92.9766 137.886 94.5317 137.886C96.0869 137.791 97.5935 137.744 99.0515 137.744C104.981 137.459 109.306 135.607 112.027 132.189C114.749 128.77 116.11 124.449 116.11 119.226C116.11 114.858 115.186 111.439 113.34 108.97C111.493 106.406 109.111 104.601 106.196 103.557C103.377 102.512 100.412 101.99 97.3019 101.99C94.8719 101.99 92.7822 101.99 91.0326 101.99C89.283 101.99 87.4362 102.037 85.4923 102.132V125.351C85.4923 127.915 85.4437 130.337 85.3465 132.616C85.2493 134.895 85.1035 136.652 84.9091 137.886ZM85.4923 92.0188L93.0738 91.8763C97.1561 91.7814 100.364 90.8792 102.696 89.1699C105.126 87.4605 106.827 85.1814 107.799 82.3325C108.868 79.3886 109.403 76.2073 109.403 72.7886C109.403 68.99 108.625 66.0462 107.07 63.957C105.515 61.7728 103.571 60.2059 101.238 59.2563C98.9057 58.3066 96.4757 57.8793 93.9485 57.9742C92.3934 57.9742 90.984 58.2116 89.7204 58.6865C88.4568 59.1613 87.4362 60.2534 86.6587 61.9627C85.8811 63.5771 85.4923 66.2361 85.4923 69.9397V92.0188Z" fill="white"/>
<defs>
<radialGradient id="paint0_radial_147_2" cx="0" cy="0" r="1" gradientUnits="userSpaceOnUse" gradientTransform="translate(96 96) rotate(40.6975) scale(96)">
<stop stop-color="#0049C0"/>
<stop offset="1" stop-color="#0866FF"/>
</radialGradient>
</defs>
</svg>
