<svg width="192" height="192" viewBox="0 0 192 192" fill="none" xmlns="http://www.w3.org/2000/svg">
<rect width="192" height="192" rx="40" fill="#F35D00"/>
<path d="M48 156V145.094C50.5512 144.984 52.6587 144.654 54.3225 144.103C56.0972 143.552 57.4282 142.285 58.3156 140.302C59.3139 138.32 59.813 135.125 59.813 130.719V67.4329C59.813 64.4586 59.8685 61.5945 59.9794 58.8406C60.2013 56.0866 60.3676 53.9936 60.4786 52.5615C58.7038 52.6717 56.4854 52.7819 53.8233 52.892C51.1612 52.892 49.2201 52.9471 48 53.0573V40.334C55.6535 40.2238 63.307 40.1688 70.9605 40.1688C78.725 40.1688 86.434 40.1137 94.0875 40.0035C107.398 39.8934 117.935 42.3719 125.7 47.4392C133.575 52.3963 137.236 59.9421 136.681 70.0767C136.459 73.2713 135.461 76.4108 133.686 79.4952C131.911 82.4695 129.249 85.1683 125.7 87.5918C122.261 90.0153 117.935 91.9431 112.722 93.3751V93.5404C123.814 95.3029 131.967 98.9932 137.18 104.611C142.393 110.119 145 116.288 145 123.118C145 130.278 143.225 136.337 139.676 141.294C136.237 146.141 131.468 149.831 125.367 152.365C119.266 154.788 112.334 156 104.569 156H48ZM83.2727 144.268C85.2693 144.268 87.1549 144.268 88.9297 144.268C90.7044 144.268 92.4791 144.268 94.2539 144.268C96.0286 144.158 97.7479 144.103 99.4117 144.103C106.178 143.772 111.114 141.624 114.22 137.659C117.325 133.693 118.878 128.681 118.878 122.622C118.878 117.555 117.824 113.589 115.717 110.725C113.609 107.751 110.892 105.658 107.564 104.446C104.348 103.234 100.965 102.628 97.4151 102.628C94.6421 102.628 92.2573 102.628 90.2607 102.628C88.2642 102.628 86.1567 102.683 83.9383 102.794V129.727C83.9383 132.702 83.8828 135.511 83.7719 138.154C83.6609 140.798 83.4946 142.836 83.2727 144.268ZM83.9383 91.0618L92.5901 90.8966C97.2487 90.7864 100.909 89.7399 103.571 87.7571C106.344 85.7742 108.285 83.1304 109.395 79.8257C110.615 76.4108 111.225 72.7205 111.225 68.7548C111.225 64.3485 110.337 60.9336 108.563 58.5101C106.788 55.9764 104.569 54.1588 101.907 53.0573C99.2453 51.9557 96.4723 51.46 93.5883 51.5701C91.8136 51.5701 90.2053 51.8455 88.7633 52.3963C87.3213 52.9471 86.1567 54.2139 85.2693 56.1968C84.3819 58.0694 83.9383 61.1539 83.9383 65.45V91.0618Z" fill="white"/>
</svg>
