<svg width="74" height="64" viewBox="0 0 74 64" fill="none" xmlns="http://www.w3.org/2000/svg">
<path d="M29.0094 49.9439C29.0094 53.9315 27.6137 57.271 24.8224 59.9626C22.0312 62.6542 18.5421 64 14.3551 64C10.3676 64 6.97819 62.4548 4.18692 59.3645C1.39564 56.2741 0 52.3863 0 47.7009C0 44.3115 0.747664 40.5732 2.24299 36.486C3.83801 32.3988 5.88162 28.2617 8.37383 24.0748C10.9657 19.8879 13.8567 15.7508 17.0467 11.6636C20.3365 7.47664 23.6262 3.58879 26.9159 0L30.9533 3.28972C26.4673 8.57321 22.729 13.9065 19.7383 19.2897C16.7477 24.6729 14.9533 29.9564 14.3551 35.1402C18.3427 35.4393 21.7819 36.9346 24.6729 39.6262C27.5639 42.3178 29.0094 45.757 29.0094 49.9439ZM71.9252 49.9439C71.9252 53.9315 70.5296 57.271 67.7383 59.9626C64.947 62.6542 61.458 64 57.271 64C53.2835 64 49.8941 62.4548 47.1028 59.3645C44.3115 56.2741 42.9159 52.3863 42.9159 47.7009C42.9159 44.3115 43.6636 40.5732 45.1589 36.486C46.7539 32.3988 48.7975 28.2617 51.2897 24.0748C53.8816 19.8879 56.7726 15.7508 59.9626 11.6636C63.2523 7.47664 66.5421 3.58879 69.8318 0L73.7196 3.28972C69.2337 8.57321 65.4953 13.9065 62.5047 19.2897C59.6137 24.6729 57.8692 29.9564 57.271 35.1402C61.2586 35.4393 64.6978 36.9346 67.5888 39.6262C70.4798 42.3178 71.9252 45.757 71.9252 49.9439Z" fill="#F2F0E7"/>
</svg>
