<svg width="32" height="32" viewBox="0 0 32 32" fill="none" xmlns="http://www.w3.org/2000/svg">
<path d="M24.8842 11.4811C24.8977 11.6763 24.8977 11.8716 24.8977 12.0687C24.8977 18.074 20.326 25 11.9665 25V24.9964C9.49702 25 7.07887 24.2926 5 22.9589C5.35908 23.0021 5.71995 23.0237 6.08173 23.0246C8.1282 23.0264 10.1162 22.3398 11.7262 21.0753C9.7814 21.0384 8.07601 19.7704 7.48024 17.9192C8.1615 18.0506 8.86346 18.0236 9.53211 17.841C7.41185 17.4126 5.88644 15.5497 5.88644 13.3862V13.3286C6.5182 13.6805 7.22556 13.8758 7.94911 13.8974C5.95214 12.5628 5.33658 9.90615 6.5425 7.82908C8.84996 10.6684 12.2544 12.3945 15.9091 12.5772C15.5428 10.9987 16.0432 9.34459 17.2239 8.23496C19.0544 6.51427 21.9333 6.60246 23.654 8.43205C24.6719 8.23136 25.6474 7.85788 26.5401 7.32872C26.2009 8.38075 25.4908 9.27439 24.5423 9.84226C25.4431 9.73606 26.3233 9.49488 27.1521 9.1268C26.5419 10.0411 25.7734 10.8376 24.8842 11.4811Z" fill="#09090B"/>
</svg>
