<svg width="32" height="32" viewBox="0 0 32 32" fill="none" xmlns="http://www.w3.org/2000/svg">
<g clip-path="url(#clip0_107_55)">
<path d="M10.524 8.46093C12.7406 10.1174 15.1247 13.476 16 15.2784C16.8754 13.4761 19.2594 10.1174 21.476 8.46093C23.0754 7.2657 25.6667 6.3409 25.6667 9.28367C25.6667 9.87138 25.3282 14.2207 25.1297 14.9268C24.4396 17.3818 21.9249 18.0079 19.688 17.6289C23.598 18.2914 24.5927 20.4856 22.4446 22.6798C18.3649 26.8471 16.5809 21.6342 16.1236 20.2985C16.0398 20.0536 16.0006 19.9391 16 20.0365C15.9994 19.9391 15.9602 20.0536 15.8764 20.2985C15.4193 21.6342 13.6353 26.8472 9.55539 22.6798C7.40725 20.4856 8.40189 18.2912 12.312 17.6289C10.075 18.0079 7.56029 17.3817 6.87029 14.9268C6.67175 14.2207 6.33325 9.87131 6.33325 9.28367C6.33325 6.3409 8.92465 7.2657 10.5239 8.46093H10.524Z" fill="#09090B"/>
</g>
<defs>
<clipPath id="clip0_107_55">
<rect width="20" height="17.5862" fill="white" transform="translate(6 7)"/>
</clipPath>
</defs>
</svg>
