<svg width="32" height="32" viewBox="0 0 32 32" fill="none" xmlns="http://www.w3.org/2000/svg">
<path fill-rule="evenodd" clip-rule="evenodd" d="M15.9681 5.33325C10.0873 5.33325 5.33325 10.2221 5.33325 16.2704C5.33325 21.105 8.37935 25.1975 12.6051 26.6459C13.1334 26.7548 13.3269 26.4106 13.3269 26.121C13.3269 25.8675 13.3095 24.9984 13.3095 24.0928C10.3512 24.7448 9.7351 22.789 9.7351 22.789C9.25967 21.5215 8.55524 21.1957 8.55524 21.1957C7.58697 20.5257 8.62577 20.5257 8.62577 20.5257C9.69984 20.5981 10.2634 21.6484 10.2634 21.6484C11.2141 23.3141 12.7459 22.8435 13.3622 22.5537C13.4502 21.8475 13.7321 21.3586 14.0314 21.087C11.6719 20.8335 9.18936 19.8919 9.18936 15.6908C9.18936 14.4957 9.61167 13.5179 10.2808 12.7575C10.1753 12.4859 9.80542 11.363 10.3866 9.86014C10.3866 9.86014 11.2846 9.57036 13.3093 10.9828C14.1762 10.7434 15.0701 10.6216 15.9681 10.6206C16.8661 10.6206 17.7815 10.7475 18.6268 10.9828C20.6517 9.57036 21.5496 9.86014 21.5496 9.86014C22.1309 11.363 21.7608 12.4859 21.6552 12.7575C22.342 13.5179 22.7469 14.4957 22.7469 15.6908C22.7469 19.8919 20.2644 20.8153 17.8873 21.087C18.2747 21.431 18.6091 22.0828 18.6091 23.115C18.6091 24.5817 18.5917 25.7588 18.5917 26.1208C18.5917 26.4106 18.7854 26.7548 19.3136 26.6461C23.5393 25.1973 26.5854 21.105 26.5854 16.2704C26.6028 10.2221 21.8313 5.33325 15.9681 5.33325Z" fill="#09090B"/>
</svg>
