<svg width="32" height="32" viewBox="0 0 32 32" fill="none" xmlns="http://www.w3.org/2000/svg">
<path d="M12.8426 26.1759C13.8666 26.4853 14.9013 26.6666 15.9999 26.6666C18.8289 26.6666 21.542 25.5428 23.5424 23.5424C25.5428 21.542 26.6666 18.8289 26.6666 15.9999C26.6666 14.5991 26.3907 13.2121 25.8547 11.918C25.3185 10.6238 24.5329 9.44794 23.5424 8.45745C22.5519 7.46696 21.376 6.68125 20.0819 6.1452C18.7877 5.60915 17.4007 5.33325 15.9999 5.33325C14.5991 5.33325 13.2121 5.60915 11.918 6.1452C10.6238 6.68125 9.44794 7.46696 8.45745 8.45745C6.45706 10.4578 5.33325 13.1709 5.33325 15.9999C5.33325 20.5333 8.18125 24.4266 12.2026 25.9626C12.1066 25.1306 12.0106 23.7546 12.2026 22.8053L13.4293 17.5359C13.4293 17.5359 13.1199 16.9173 13.1199 15.9359C13.1199 14.4639 14.0373 13.3653 15.0826 13.3653C15.9999 13.3653 16.4266 14.0373 16.4266 14.9013C16.4266 15.8186 15.8186 17.1306 15.5093 18.3893C15.3279 19.4346 16.0639 20.3519 17.1306 20.3519C19.0293 20.3519 20.5013 18.3253 20.5013 15.4666C20.5013 12.9066 18.6666 11.1573 16.0319 11.1573C13.0239 11.1573 11.2533 13.3973 11.2533 15.7546C11.2533 16.6719 11.5519 17.5999 12.0426 18.2079C12.1386 18.2719 12.1386 18.3573 12.1066 18.5173L11.7973 19.6799C11.7973 19.8613 11.6799 19.9253 11.4986 19.7973C10.1333 19.1999 9.34392 17.2586 9.34392 15.6906C9.34392 12.3199 11.7333 9.25859 16.3413 9.25859C20.0106 9.25859 22.8693 11.8933 22.8693 15.3919C22.8693 19.0613 20.5973 22.0053 17.3439 22.0053C16.3093 22.0053 15.2959 21.4506 14.9333 20.7999L14.2186 23.3279C13.9733 24.2453 13.3013 25.4719 12.8426 26.2079V26.1759Z" fill="#09090B"/>
</svg>
